<svg width="96" height="96" viewBox="0 0 498 500" fill="none" xmlns="http://www.w3.org/2000/svg">
<g filter="url(#filter0_d_0_1)">
<mask id="path-1-outside-1_0_1" maskUnits="userSpaceOnUse" x="0.670319" y="-0.41626" width="489" height="489" fill="black">
<rect fill="white" x="0.670319" y="-0.41626" width="489" height="489"/>
<path d="M118.236 26.2669C104.762 74.7724 85.7726 211.475 76.6158 289.18C103.171 270.8 120.464 223.101 131.12 162.661C135.056 168.611 137.324 173.169 140.944 177.744C145.253 183.189 140.753 176.952 148.652 187.405C156.551 197.858 153.169 194.074 158.995 201.497C174.033 220.657 177.366 224.754 187.098 234.66C185.925 238.862 182.598 246.453 178.177 256.188C173.713 265.558 168.957 273.66 163.911 280.496C159.141 287.303 152.325 294.512 143.465 302.122C134.604 309.733 124.995 315.754 114.64 320.187C135.634 332.422 157.649 339.174 180.686 340.443C180.426 345.289 178.941 351.563 176.231 359.264C173.478 366.599 170.361 373.231 166.881 379.159C163.634 384.693 158.479 390.614 151.416 396.922C144.63 403.201 136.841 408.103 128.052 411.628C109.303 392.482 90.3575 368.168 71.2141 338.684L65.0388 425.132C56.2265 421.525 42.6199 415.138 31.905 408.201C21.1901 401.264 13.1425 394.69 6.67032 387.22C10.4871 304.52 14.8587 232.326 19.785 170.639L25.5784 124.139C29.6379 122.651 34.3017 119.435 38.1768 116.048C60.7227 96.3414 59.7108 96.8263 86.6327 67.9449L118.236 26.2669Z"/>
<path d="M241.04 317.864C240.115 339.409 240.002 355.824 240.701 367.111C241.424 378.786 240.355 390.815 240.5 393.15C229.443 406.881 234.559 400.725 210.062 425.853C198.512 437.699 184.111 452.394 176.651 459.037L150.012 482.292C166.578 461.461 184.074 388.524 186.573 338.9C190.492 288.65 189.96 245.235 190.196 208.496L190.513 152.804C213.413 157.637 234.105 165.341 252.589 175.917L261.956 181.197C250.376 213.169 243.404 258.724 241.04 317.864ZM268.726 77.6373L256.663 150.465C254.412 150.605 250.063 149.311 243.616 146.585C237.419 143.844 231.961 140.861 227.241 137.637C214.954 129.803 204.515 117.362 195.926 100.313C199.835 86.3969 204.341 74.0067 209.444 63.1422C214.547 52.2777 218.944 41.5714 222.229 37.8518L238.657 6.58374C239.553 30.7666 242.41 72.7711 260.725 75.7804L268.726 77.6373Z"/>
<path d="M331.265 406.319C338.475 352.021 344.686 304.943 343.496 272.807C343.394 270.029 343.185 267.653 342.869 265.679L341.68 253.208C328.362 273.565 317.462 303.567 308.982 343.212C308.586 371.832 308.468 394.879 308.63 412.354L255.505 392.866C259.558 318.82 261.397 260.35 261.023 217.457L260.869 193.625L303.359 158.116L324.403 133.099L307.97 256.839C316.009 231.512 326.108 212.665 338.266 200.296C350.409 187.531 362.053 180.942 373.198 180.53C380.599 196.942 386.002 218.394 389.408 244.887C396.655 224.357 404.889 207.564 414.11 194.51C423.331 181.456 431.455 174.798 438.481 174.538C452.775 174.009 467.804 199.873 483.566 252.129C479.66 264.59 475.986 286.577 472.542 318.09C469.084 349.207 455.93 399.905 470.44 426.724C447.349 414.529 424.71 395.742 413.69 379.861C420.107 330.36 422.831 292.516 421.862 266.331C421.789 264.347 421.723 262.562 421.664 260.975L420.541 250.29C411.232 260.964 402.3 278.576 393.747 303.128C391.985 321.071 390.413 350.727 389.033 392.096C378.593 398.442 362.946 399.622 344.34 403.462C340.498 404.255 334.785 405.369 331.265 406.319Z"/>
</mask>
<path d="M118.236 26.2669C104.762 74.7724 85.7726 211.475 76.6158 289.18C103.171 270.8 120.464 223.101 131.12 162.661C135.056 168.611 137.324 173.169 140.944 177.744C145.253 183.189 140.753 176.952 148.652 187.405C156.551 197.858 153.169 194.074 158.995 201.497C174.033 220.657 177.366 224.754 187.098 234.66C185.925 238.862 182.598 246.453 178.177 256.188C173.713 265.558 168.957 273.66 163.911 280.496C159.141 287.303 152.325 294.512 143.465 302.122C134.604 309.733 124.995 315.754 114.64 320.187C135.634 332.422 157.649 339.174 180.686 340.443C180.426 345.289 178.941 351.563 176.231 359.264C173.478 366.599 170.361 373.231 166.881 379.159C163.634 384.693 158.479 390.614 151.416 396.922C144.63 403.201 136.841 408.103 128.052 411.628C109.303 392.482 90.3575 368.168 71.2141 338.684L65.0388 425.132C56.2265 421.525 42.6199 415.138 31.905 408.201C21.1901 401.264 13.1425 394.69 6.67032 387.22C10.4871 304.52 14.8587 232.326 19.785 170.639L25.5784 124.139C29.6379 122.651 34.3017 119.435 38.1768 116.048C60.7227 96.3414 59.7108 96.8263 86.6327 67.9449L118.236 26.2669Z" fill="black"/>
<path d="M241.04 317.864C240.115 339.409 240.002 355.824 240.701 367.111C241.424 378.786 240.355 390.815 240.5 393.15C229.443 406.881 234.559 400.725 210.062 425.853C198.512 437.699 184.111 452.394 176.651 459.037L150.012 482.292C166.578 461.461 184.074 388.524 186.573 338.9C190.492 288.65 189.96 245.235 190.196 208.496L190.513 152.804C213.413 157.637 234.105 165.341 252.589 175.917L261.956 181.197C250.376 213.169 243.404 258.724 241.04 317.864ZM268.726 77.6373L256.663 150.465C254.412 150.605 250.063 149.311 243.616 146.585C237.419 143.844 231.961 140.861 227.241 137.637C214.954 129.803 204.515 117.362 195.926 100.313C199.835 86.3969 204.341 74.0067 209.444 63.1422C214.547 52.2777 218.944 41.5714 222.229 37.8518L238.657 6.58374C239.553 30.7666 242.41 72.7711 260.725 75.7804L268.726 77.6373Z" fill="black"/>
<path d="M331.265 406.319C338.475 352.021 344.686 304.943 343.496 272.807C343.394 270.029 343.185 267.653 342.869 265.679L341.68 253.208C328.362 273.565 317.462 303.567 308.982 343.212C308.586 371.832 308.468 394.879 308.63 412.354L255.505 392.866C259.558 318.82 261.397 260.35 261.023 217.457L260.869 193.625L303.359 158.116L324.403 133.099L307.97 256.839C316.009 231.512 326.108 212.665 338.266 200.296C350.409 187.531 362.053 180.942 373.198 180.53C380.599 196.942 386.002 218.394 389.408 244.887C396.655 224.357 404.889 207.564 414.11 194.51C423.331 181.456 431.455 174.798 438.481 174.538C452.775 174.009 467.804 199.873 483.566 252.129C479.66 264.59 475.986 286.577 472.542 318.09C469.084 349.207 455.93 399.905 470.44 426.724C447.349 414.529 424.71 395.742 413.69 379.861C420.107 330.36 422.831 292.516 421.862 266.331C421.789 264.347 421.723 262.562 421.664 260.975L420.541 250.29C411.232 260.964 402.3 278.576 393.747 303.128C391.985 321.071 390.413 350.727 389.033 392.096C378.593 398.442 362.946 399.622 344.34 403.462C340.498 404.255 334.785 405.369 331.265 406.319Z" fill="black"/>
<path d="M118.236 26.2669C104.762 74.7724 85.7726 211.475 76.6158 289.18C103.171 270.8 120.464 223.101 131.12 162.661C135.056 168.611 137.324 173.169 140.944 177.744C145.253 183.189 140.753 176.952 148.652 187.405C156.551 197.858 153.169 194.074 158.995 201.497C174.033 220.657 177.366 224.754 187.098 234.66C185.925 238.862 182.598 246.453 178.177 256.188C173.713 265.558 168.957 273.66 163.911 280.496C159.141 287.303 152.325 294.512 143.465 302.122C134.604 309.733 124.995 315.754 114.64 320.187C135.634 332.422 157.649 339.174 180.686 340.443C180.426 345.289 178.941 351.563 176.231 359.264C173.478 366.599 170.361 373.231 166.881 379.159C163.634 384.693 158.479 390.614 151.416 396.922C144.63 403.201 136.841 408.103 128.052 411.628C109.303 392.482 90.3575 368.168 71.2141 338.684L65.0388 425.132C56.2265 421.525 42.6199 415.138 31.905 408.201C21.1901 401.264 13.1425 394.69 6.67032 387.22C10.4871 304.52 14.8587 232.326 19.785 170.639L25.5784 124.139C29.6379 122.651 34.3017 119.435 38.1768 116.048C60.7227 96.3414 59.7108 96.8263 86.6327 67.9449L118.236 26.2669Z" stroke="black" stroke-width="12" stroke-linejoin="round" mask="url(#path-1-outside-1_0_1)"/>
<path d="M241.04 317.864C240.115 339.409 240.002 355.824 240.701 367.111C241.424 378.786 240.355 390.815 240.5 393.15C229.443 406.881 234.559 400.725 210.062 425.853C198.512 437.699 184.111 452.394 176.651 459.037L150.012 482.292C166.578 461.461 184.074 388.524 186.573 338.9C190.492 288.65 189.96 245.235 190.196 208.496L190.513 152.804C213.413 157.637 234.105 165.341 252.589 175.917L261.956 181.197C250.376 213.169 243.404 258.724 241.04 317.864ZM268.726 77.6373L256.663 150.465C254.412 150.605 250.063 149.311 243.616 146.585C237.419 143.844 231.961 140.861 227.241 137.637C214.954 129.803 204.515 117.362 195.926 100.313C199.835 86.3969 204.341 74.0067 209.444 63.1422C214.547 52.2777 218.944 41.5714 222.229 37.8518L238.657 6.58374C239.553 30.7666 242.41 72.7711 260.725 75.7804L268.726 77.6373Z" stroke="black" stroke-width="12" stroke-linejoin="round" mask="url(#path-1-outside-1_0_1)"/>
<path d="M331.265 406.319C338.475 352.021 344.686 304.943 343.496 272.807C343.394 270.029 343.185 267.653 342.869 265.679L341.68 253.208C328.362 273.565 317.462 303.567 308.982 343.212C308.586 371.832 308.468 394.879 308.63 412.354L255.505 392.866C259.558 318.82 261.397 260.35 261.023 217.457L260.869 193.625L303.359 158.116L324.403 133.099L307.97 256.839C316.009 231.512 326.108 212.665 338.266 200.296C350.409 187.531 362.053 180.942 373.198 180.53C380.599 196.942 386.002 218.394 389.408 244.887C396.655 224.357 404.889 207.564 414.11 194.51C423.331 181.456 431.455 174.798 438.481 174.538C452.775 174.009 467.804 199.873 483.566 252.129C479.66 264.59 475.986 286.577 472.542 318.09C469.084 349.207 455.93 399.905 470.44 426.724C447.349 414.529 424.71 395.742 413.69 379.861C420.107 330.36 422.831 292.516 421.862 266.331C421.789 264.347 421.723 262.562 421.664 260.975L420.541 250.29C411.232 260.964 402.3 278.576 393.747 303.128C391.985 321.071 390.413 350.727 389.033 392.096C378.593 398.442 362.946 399.622 344.34 403.462C340.498 404.255 334.785 405.369 331.265 406.319Z" stroke="black" stroke-width="12" stroke-linejoin="round" mask="url(#path-1-outside-1_0_1)"/>
</g>
<g filter="url(#filter1_d_0_1)">
<path fill-rule="evenodd" clip-rule="evenodd" d="M77.9779 277.787C86.4255 208.073 101.306 101.598 113.509 45.7418C115.14 38.2765 116.723 31.7153 118.236 26.2669L86.6327 67.9449C83.4774 71.3298 80.7059 74.3114 78.2351 76.9693C59.6244 96.99 58.0803 98.6511 38.1768 116.048C34.3017 119.435 29.6379 122.651 25.5784 124.139L19.785 170.639C14.8587 232.326 10.4871 304.52 6.67032 387.22C13.1425 394.69 21.1901 401.264 31.905 408.201C39.8112 413.319 49.2918 418.139 57.2591 421.762C60.0895 423.05 62.7288 424.186 65.0388 425.132L71.2141 338.684C73.6307 342.406 76.0442 346.046 78.4545 349.603C95.1377 374.224 111.67 394.899 128.052 411.628C136.841 408.103 144.63 403.201 151.416 396.922C158.479 390.614 163.634 384.693 166.881 379.159C170.361 373.231 173.478 366.599 176.231 359.264C176.54 358.387 176.832 357.529 177.109 356.69C178.1 353.685 178.887 350.917 179.47 348.386C180.147 345.451 180.55 342.835 180.68 340.537C180.682 340.506 180.684 340.474 180.686 340.443C179.951 340.402 179.218 340.356 178.486 340.305C159.427 338.962 141.07 333.845 123.417 324.952C120.471 323.469 117.546 321.88 114.64 320.187C117.634 318.905 120.565 317.491 123.434 315.944C130.489 312.14 137.166 307.533 143.465 302.122C152.325 294.512 159.141 287.303 163.911 280.496C168.957 273.66 173.713 265.558 178.177 256.188C179.58 253.099 180.872 250.227 182.021 247.609C184.492 241.977 186.297 237.529 187.098 234.66C185.246 232.774 183.625 231.098 182.111 229.489C175.673 222.648 171.17 217.009 158.995 201.497C156.106 197.815 155.481 196.891 154.622 195.618C153.749 194.325 152.633 192.674 148.652 187.405C143.929 181.155 143.639 180.872 143.248 180.49C142.985 180.234 142.677 179.933 140.944 177.744C139.636 176.091 138.505 174.44 137.407 172.725C136.618 171.492 135.847 170.227 135.041 168.903C133.864 166.972 132.612 164.916 131.12 162.661C130.427 166.592 129.706 170.47 128.956 174.289C119.528 222.294 105.549 261.06 85.5843 281.527C82.7195 284.463 79.7314 287.024 76.6158 289.18C77.0484 285.509 77.503 281.706 77.9779 277.787ZM135.256 183.444C130.436 206.308 124.495 227.104 117.226 244.741C108.017 267.089 96.3061 285.281 81.1689 295.758L66.5968 305.844L68.6708 288.244C76.077 225.394 90.0005 123.194 102.292 60.5336L92.7617 73.1025L92.4846 73.3998C89.3537 76.7586 86.597 79.724 84.134 82.3736C65.3919 102.535 63.6549 104.404 43.4416 122.072C40.4466 124.69 36.7793 127.44 32.9701 129.518L27.7455 171.452C22.8993 232.17 18.5882 303.117 14.814 384.303C20.2985 390.129 27.1336 395.582 36.2527 401.485C42.8904 405.783 50.7976 409.91 57.8685 413.231L64.9341 314.322L77.9238 334.328C95.5393 361.458 112.882 384.002 129.932 402.043C135.862 399.136 141.203 395.472 145.983 391.05L146.035 391.002L146.087 390.955C152.796 384.964 157.304 379.673 159.982 375.11C163.188 369.647 166.105 363.463 168.712 356.53C169.886 353.19 170.773 350.249 171.412 347.684C150.248 345.266 129.963 338.376 110.611 327.099L96.87 319.09L111.492 312.832C121.071 308.732 129.987 303.152 138.252 296.053C146.794 288.717 153.092 281.995 157.36 275.905L157.416 275.825L157.475 275.745C162.148 269.414 166.642 261.79 170.924 252.813C174.042 245.946 176.43 240.533 177.928 236.701C170.273 228.713 165.906 223.26 152.702 206.436C149.695 202.605 148.968 201.54 147.971 200.065L147.954 200.039C147.18 198.892 146.123 197.327 142.269 192.228C140.297 189.619 139.128 188.089 138.411 187.169C137.915 186.532 137.694 186.265 137.622 186.178C137.61 186.167 137.598 186.154 137.583 186.14C137.388 185.948 137.168 185.723 136.888 185.409C136.502 184.977 136.003 184.378 135.256 183.444ZM190.121 226.299C190.116 228.088 190.11 229.89 190.104 231.707C190.099 232.963 190.094 234.226 190.089 235.495C190.071 240.014 190.046 244.619 190.008 249.31C189.804 274.609 189.208 302.42 187.031 332.78C186.885 334.809 186.733 336.849 186.573 338.9C186.542 339.514 186.509 340.132 186.473 340.753C186.151 346.383 185.643 352.295 184.972 358.383C181.018 394.213 171.39 436.112 160.673 462.366C157.182 470.919 153.576 477.811 150.012 482.292L176.651 459.037C184.111 452.394 198.512 437.699 210.062 425.853C216.881 418.858 221.405 414.287 224.623 411.037C228.654 406.966 230.633 404.966 232.503 402.869C234.307 400.844 236.01 398.729 239.355 394.572L240.5 393.15C240.455 392.429 240.526 390.782 240.625 388.505C240.845 383.415 241.2 375.178 240.701 367.111C240.002 355.824 240.115 339.409 241.04 317.864C242.714 275.99 246.698 240.927 252.992 212.673C254.491 205.944 256.121 199.601 257.883 193.644C258.145 192.756 258.411 191.876 258.679 191.005C259.555 188.164 260.461 185.415 261.399 182.757C261.584 182.233 261.769 181.713 261.956 181.197L252.589 175.917C236.279 166.585 218.251 159.489 198.503 154.629C195.87 153.981 193.207 153.373 190.513 152.804L190.196 208.496C190.16 214.046 190.142 219.748 190.124 225.602V225.611C190.123 225.84 190.122 226.069 190.121 226.299ZM260.869 193.625L261.023 217.457C261.397 260.35 259.558 318.82 255.505 392.866L308.63 412.354C308.605 409.641 308.586 406.794 308.575 403.813C308.511 387.589 308.647 367.389 308.982 343.212C315.947 310.651 324.544 284.595 334.772 265.044C336.997 260.791 339.3 256.846 341.68 253.208L342.869 265.679C342.917 265.979 342.962 266.288 343.005 266.606C343.246 268.384 343.409 270.451 343.496 272.807C344.623 303.251 339.108 347.104 332.394 397.802C332.021 400.621 331.644 403.46 331.265 406.319C333.501 405.715 336.621 405.046 339.585 404.434C340.472 404.251 341.346 404.074 342.177 403.904C342.941 403.749 343.669 403.6 344.34 403.462C349.176 402.464 353.812 401.646 358.209 400.87C370.728 398.66 381.306 396.793 389.033 392.096C390.413 350.727 391.985 321.071 393.747 303.128C400.12 284.833 406.704 270.392 413.497 259.803C415.82 256.181 418.168 253.01 420.541 250.29L421.664 260.975L421.862 266.331C422.831 292.516 420.107 330.36 413.69 379.861C422.91 393.148 440.262 408.468 459.207 420.26C462.907 422.563 466.667 424.731 470.44 426.724C468.544 423.221 467.121 419.31 466.087 415.089C460.918 393.999 465.453 365.157 469.307 340.642C470.587 332.5 471.793 324.835 472.542 318.09C475.986 286.577 479.66 264.59 483.566 252.129C467.804 199.873 452.775 174.009 438.481 174.538C431.455 174.798 423.331 181.456 414.11 194.51C407.282 204.177 400.995 215.893 395.25 229.658C393.236 234.482 391.289 239.559 389.408 244.887C388.687 239.278 387.876 233.894 386.976 228.737C383.624 209.536 379.032 193.467 373.198 180.53C362.053 180.942 350.409 187.531 338.266 200.296C331.57 207.108 325.499 215.885 320.052 226.627C315.609 235.39 311.582 245.461 307.97 256.839L324.403 133.099L303.359 158.116L260.869 193.625ZM312.86 159.249L309.029 163.804L268.894 197.345L269.023 217.387C269.023 217.388 269.023 217.389 269.023 217.389C269.389 259.377 267.647 316.067 263.814 387.393L300.565 400.874C300.528 385.112 300.668 365.851 300.983 343.101L300.994 342.311L301.159 341.539C309.727 301.485 320.885 270.38 334.985 248.828L347.477 229.733L350.81 264.679C351.167 267.006 351.385 269.633 351.491 272.511C352.625 303.165 347.221 346.703 340.698 396.041C341.428 395.892 342.111 395.753 342.723 395.627C347.501 394.641 352.072 393.829 356.314 393.081L356.767 393.001C360.872 392.276 364.621 391.614 368.12 390.887C373.428 389.783 377.717 388.609 381.197 387.127C382.539 348.179 384.064 319.871 385.785 302.346L385.878 301.396L386.192 300.496C394.848 275.649 404.184 256.873 414.512 245.032L426.578 231.197L429.649 260.408L429.857 266.035C430.83 292.324 428.174 329.636 422.03 377.731C429.728 387.865 442.441 399.362 456.826 409.163C455.194 397.675 455.648 385.174 456.789 373.256C457.768 363.039 459.316 352.74 460.81 343.184C461.011 341.901 461.21 340.634 461.407 339.383C462.69 331.221 463.862 323.763 464.59 317.215C467.833 287.542 471.335 265.688 475.211 252.147C467.64 227.393 460.39 209.32 453.556 197.559C450.029 191.489 446.842 187.505 444.109 185.144C441.423 182.823 439.703 182.499 438.777 182.533C437.684 182.573 435.536 183.171 432.189 185.914C428.893 188.615 425.032 192.914 420.644 199.126C411.97 211.406 404.036 227.481 396.952 247.549L381.474 245.907C378.508 222.841 374.044 204.044 368.229 189.325C361.236 191.159 353.187 196.218 344.062 205.81L344.017 205.858L343.971 205.904C333.04 217.025 323.438 234.552 315.595 259.26L300.04 255.786L312.86 159.249ZM198.456 162.864L198.196 208.548C198.16 214.064 198.142 219.744 198.124 225.586C198.02 258.461 197.901 296.479 194.557 339.414C193.267 364.827 188.174 395.94 181.329 423.333C178.857 433.223 176.14 442.7 173.263 451.306C180.861 444.274 193.652 431.224 204.333 420.268C219.918 404.283 223.474 400.99 226.678 397.384C228.254 395.608 229.745 393.757 232.543 390.278C232.554 389.992 232.566 389.71 232.578 389.438L232.579 389.404C232.596 389 232.614 388.577 232.633 388.134C232.694 386.733 232.763 385.141 232.822 383.367C232.977 378.705 233.054 373.071 232.716 367.605C231.991 355.895 232.119 339.149 233.047 317.533C235.274 261.838 241.576 217.498 252.225 184.895L248.639 182.873L248.616 182.86C233.515 174.22 216.808 167.543 198.456 162.864ZM222.229 37.8518C219.712 40.7015 216.543 47.6519 212.903 55.6326L212.902 55.634L212.9 55.6397C211.79 58.0738 210.636 60.6037 209.444 63.1422C204.341 74.0067 199.835 86.3969 195.926 100.313C204.515 117.362 214.954 129.803 227.241 137.637C231.961 140.861 237.419 143.844 243.616 146.585C245.551 147.404 247.297 148.093 248.854 148.653C250.036 149.078 251.108 149.429 252.072 149.705C254.07 150.278 255.6 150.531 256.663 150.465L268.726 77.6373L260.725 75.7804C245.949 73.3527 241.234 45.5463 239.493 22.192C239.076 16.597 238.83 11.2575 238.657 6.58374L222.229 37.8518ZM232.708 35.1067L228.863 42.4255L228.225 43.1477C227.456 44.0188 225.986 46.5531 223.738 51.264C222.569 53.7123 221.443 56.1847 220.237 58.8312C219.148 61.2228 217.994 63.7565 216.685 66.5432C212.168 76.1603 208.096 87.1215 204.492 99.4581C212.317 114.139 221.409 124.431 231.542 130.891L231.649 130.959L231.754 131.031C235.99 133.925 240.988 136.671 246.792 139.243C248.033 139.767 249.163 140.222 250.186 140.614L259.607 83.7336L259.14 83.6253C251.511 82.2629 246.287 76.9716 242.825 71.2305C239.327 65.4282 236.992 58.1852 235.352 50.8719C234.218 45.8115 233.362 40.4527 232.708 35.1067Z" fill="#FFF388"/>
</g>
<defs>
<filter id="filter0_d_0_1" x="0.670319" y="0.583237" width="496.896" height="498.709" filterUnits="userSpaceOnUse" color-interpolation-filters="sRGB">
<feFlood flood-opacity="0" result="BackgroundImageFix"/>
<feColorMatrix in="SourceAlpha" type="matrix" values="0 0 0 0 0 0 0 0 0 0 0 0 0 0 0 0 0 0 127 0" result="hardAlpha"/>
<feOffset dx="4" dy="7"/>
<feGaussianBlur stdDeviation="2"/>
<feComposite in2="hardAlpha" operator="out"/>
<feColorMatrix type="matrix" values="0 0 0 0 0 0 0 0 0 0 0 0 0 0 0 0 0 0 0.4 0"/>
<feBlend mode="normal" in2="BackgroundImageFix" result="effect1_dropShadow_0_1"/>
<feBlend mode="normal" in="SourceGraphic" in2="effect1_dropShadow_0_1" result="shape"/>
</filter>
<filter id="filter1_d_0_1" x="6.67032" y="6.58374" width="484.896" height="486.708" filterUnits="userSpaceOnUse" color-interpolation-filters="sRGB">
<feFlood flood-opacity="0" result="BackgroundImageFix"/>
<feColorMatrix in="SourceAlpha" type="matrix" values="0 0 0 0 0 0 0 0 0 0 0 0 0 0 0 0 0 0 127 0" result="hardAlpha"/>
<feOffset dx="4" dy="7"/>
<feGaussianBlur stdDeviation="2"/>
<feComposite in2="hardAlpha" operator="out"/>
<feColorMatrix type="matrix" values="0 0 0 0 0 0 0 0 0 0 0 0 0 0 0 0 0 0 0.4 0"/>
<feBlend mode="normal" in2="BackgroundImageFix" result="effect1_dropShadow_0_1"/>
<feBlend mode="normal" in="SourceGraphic" in2="effect1_dropShadow_0_1" result="shape"/>
</filter>
</defs>
</svg>
